<?xml version="1.0" standalone="no"?>
 <!DOCTYPE svg PUBLIC "-//W3C//DTD SVG 1.1//EN" 
 "http://www.w3.org/Graphics/SVG/1.1/DTD/svg11.dtd"> 
<svg xmlns="http://www.w3.org/2000/svg" version="1.1" 
    width="29.7002cm" height="21.0007cm" viewBox="0 0 116930 82680 ">
<title>SVG Picture created as QC2Control.svg date 2017/05/31 21:56:03 </title>
  <desc>Picture generated by Eeschema-SVG </desc>
<g style="fill:#000000; fill-opacity:1;stroke:#000000; stroke-opacity:1;
stroke-linecap:round; stroke-linejoin:round; "
 transform="translate(0 0) scale(1 1)">
</g>
<g style="fill:#000000; fill-opacity:0.0; 
stroke:#000000; stroke-width:-10; stroke-opacity:1; 
stroke-linecap:round; stroke-linejoin:round;">
</g>
<g style="fill:#840000; fill-opacity:0.0; 
stroke:#840000; stroke-width:-10; stroke-opacity:1; 
stroke-linecap:round; stroke-linejoin:round;">
</g>
<g style="fill:#840000; fill-opacity:0.0; 
stroke:#840000; stroke-width:100; stroke-opacity:1; 
stroke-linecap:round; stroke-linejoin:round;">
</g>
<g style="fill:#840000; fill-opacity:0.0; 
stroke:#840000; stroke-width:60; stroke-opacity:1; 
stroke-linecap:round; stroke-linejoin:round;">
<rect x="69690" y="65360" width="42520" height="12600" rx="0" />
</g>
<g style="fill:#840000; fill-opacity:0.0; 
stroke:#840000; stroke-width:100; stroke-opacity:1; 
stroke-linecap:round; stroke-linejoin:round;">
</g>
<g style="fill:#840000; fill-opacity:0.0; 
stroke:#840000; stroke-width:60; stroke-opacity:1; 
stroke-linecap:round; stroke-linejoin:round;">
<rect x="3940" y="3940" width="109050" height="74800" rx="0" />
</g>
<g style="fill:#840000; fill-opacity:0.0; 
stroke:#840000; stroke-width:100; stroke-opacity:1; 
stroke-linecap:round; stroke-linejoin:round;">
</g>
<g style="fill:#840000; fill-opacity:0.0; 
stroke:#840000; stroke-width:60; stroke-opacity:1; 
stroke-linecap:round; stroke-linejoin:round;">
<rect x="4720" y="4720" width="107490" height="73240" rx="0" />
</g>
<g style="fill:#840000; fill-opacity:0.0; 
stroke:#840000; stroke-width:100; stroke-opacity:1; 
stroke-linecap:round; stroke-linejoin:round;">
</g>
<g style="fill:#840000; fill-opacity:0.0; 
stroke:#840000; stroke-width:60; stroke-opacity:1; 
stroke-linecap:round; stroke-linejoin:round;">
<path d="M23620 4720
L23620 3940
" />
</g>
<g style="fill:#840000; fill-opacity:0.0; 
stroke:#840000; stroke-width:100; stroke-opacity:1; 
stroke-linecap:round; stroke-linejoin:round;">
</g>
<g style="fill:#840000; fill-opacity:0.0; 
stroke:#840000; stroke-width:60; stroke-opacity:1; 
stroke-linecap:round; stroke-linejoin:round;">
<path d="M43310 4720
L43310 3940
" />
</g>
<g style="fill:#840000; fill-opacity:0.0; 
stroke:#840000; stroke-width:100; stroke-opacity:1; 
stroke-linecap:round; stroke-linejoin:round;">
</g>
<g style="fill:#840000; fill-opacity:0.0; 
stroke:#840000; stroke-width:60; stroke-opacity:1; 
stroke-linecap:round; stroke-linejoin:round;">
<path d="M62990 4720
L62990 3940
" />
</g>
<g style="fill:#840000; fill-opacity:0.0; 
stroke:#840000; stroke-width:100; stroke-opacity:1; 
stroke-linecap:round; stroke-linejoin:round;">
</g>
<g style="fill:#840000; fill-opacity:0.0; 
stroke:#840000; stroke-width:60; stroke-opacity:1; 
stroke-linecap:round; stroke-linejoin:round;">
<path d="M82680 4720
L82680 3940
" />
</g>
<g style="fill:#840000; fill-opacity:0.0; 
stroke:#840000; stroke-width:100; stroke-opacity:1; 
stroke-linecap:round; stroke-linejoin:round;">
</g>
<g style="fill:#840000; fill-opacity:0.0; 
stroke:#840000; stroke-width:60; stroke-opacity:1; 
stroke-linecap:round; stroke-linejoin:round;">
<path d="M102360 4720
L102360 3940
" />
</g>
<g style="fill:#840000; fill-opacity:0.0; 
stroke:#840000; stroke-width:100; stroke-opacity:1; 
stroke-linecap:round; stroke-linejoin:round;">
</g>
<g style="fill:#840000; fill-opacity:0.0; 
stroke:#840000; stroke-width:60; stroke-opacity:1; 
stroke-linecap:round; stroke-linejoin:round;">
<path d="M14170 4560
L13880 4560
" />
<path d="M14020 4560
L14020 4050
L13970 4120
L13930 4170
L13880 4190
" />
</g>
<g style="fill:#840000; fill-opacity:0.0; 
stroke:#840000; stroke-width:100; stroke-opacity:1; 
stroke-linecap:round; stroke-linejoin:round;">
</g>
<g style="fill:#840000; fill-opacity:0.0; 
stroke:#840000; stroke-width:60; stroke-opacity:1; 
stroke-linecap:round; stroke-linejoin:round;">
<path d="M33560 4090
L33580 4070
L33630 4050
L33750 4050
L33800 4070
L33820 4090
L33850 4140
L33850 4190
L33820 4260
L33530 4560
L33850 4560
" />
</g>
<g style="fill:#840000; fill-opacity:0.0; 
stroke:#840000; stroke-width:100; stroke-opacity:1; 
stroke-linecap:round; stroke-linejoin:round;">
</g>
<g style="fill:#840000; fill-opacity:0.0; 
stroke:#840000; stroke-width:60; stroke-opacity:1; 
stroke-linecap:round; stroke-linejoin:round;">
<path d="M53220 4050
L53540 4050
L53370 4240
L53440 4240
L53490 4260
L53510 4290
L53540 4340
L53540 4460
L53510 4510
L53490 4530
L53440 4560
L53300 4560
L53250 4530
L53220 4510
" />
</g>
<g style="fill:#840000; fill-opacity:0.0; 
stroke:#840000; stroke-width:100; stroke-opacity:1; 
stroke-linecap:round; stroke-linejoin:round;">
</g>
<g style="fill:#840000; fill-opacity:0.0; 
stroke:#840000; stroke-width:60; stroke-opacity:1; 
stroke-linecap:round; stroke-linejoin:round;">
<path d="M73170 4220
L73170 4560
" />
<path d="M73050 4020
L72930 4390
L73240 4390
" />
</g>
<g style="fill:#840000; fill-opacity:0.0; 
stroke:#840000; stroke-width:100; stroke-opacity:1; 
stroke-linecap:round; stroke-linejoin:round;">
</g>
<g style="fill:#840000; fill-opacity:0.0; 
stroke:#840000; stroke-width:60; stroke-opacity:1; 
stroke-linecap:round; stroke-linejoin:round;">
<path d="M92880 4050
L92640 4050
L92620 4290
L92640 4260
L92690 4240
L92810 4240
L92860 4260
L92880 4290
L92910 4340
L92910 4460
L92880 4510
L92860 4530
L92810 4560
L92690 4560
L92640 4530
L92620 4510
" />
</g>
<g style="fill:#840000; fill-opacity:0.0; 
stroke:#840000; stroke-width:100; stroke-opacity:1; 
stroke-linecap:round; stroke-linejoin:round;">
</g>
<g style="fill:#840000; fill-opacity:0.0; 
stroke:#840000; stroke-width:60; stroke-opacity:1; 
stroke-linecap:round; stroke-linejoin:round;">
<path d="M112540 4050
L112440 4050
L112390 4070
L112370 4090
L112320 4170
L112300 4260
L112300 4460
L112320 4510
L112350 4530
L112390 4560
L112490 4560
L112540 4530
L112560 4510
L112590 4460
L112590 4340
L112560 4290
L112540 4260
L112490 4240
L112390 4240
L112350 4260
L112320 4290
L112300 4340
" />
</g>
<g style="fill:#840000; fill-opacity:0.0; 
stroke:#840000; stroke-width:100; stroke-opacity:1; 
stroke-linecap:round; stroke-linejoin:round;">
</g>
<g style="fill:#840000; fill-opacity:0.0; 
stroke:#840000; stroke-width:60; stroke-opacity:1; 
stroke-linecap:round; stroke-linejoin:round;">
<path d="M23620 77960
L23620 78740
" />
</g>
<g style="fill:#840000; fill-opacity:0.0; 
stroke:#840000; stroke-width:100; stroke-opacity:1; 
stroke-linecap:round; stroke-linejoin:round;">
</g>
<g style="fill:#840000; fill-opacity:0.0; 
stroke:#840000; stroke-width:60; stroke-opacity:1; 
stroke-linecap:round; stroke-linejoin:round;">
<path d="M43310 77960
L43310 78740
" />
</g>
<g style="fill:#840000; fill-opacity:0.0; 
stroke:#840000; stroke-width:100; stroke-opacity:1; 
stroke-linecap:round; stroke-linejoin:round;">
</g>
<g style="fill:#840000; fill-opacity:0.0; 
stroke:#840000; stroke-width:60; stroke-opacity:1; 
stroke-linecap:round; stroke-linejoin:round;">
<path d="M62990 77960
L62990 78740
" />
</g>
<g style="fill:#840000; fill-opacity:0.0; 
stroke:#840000; stroke-width:100; stroke-opacity:1; 
stroke-linecap:round; stroke-linejoin:round;">
</g>
<g style="fill:#840000; fill-opacity:0.0; 
stroke:#840000; stroke-width:60; stroke-opacity:1; 
stroke-linecap:round; stroke-linejoin:round;">
<path d="M82680 77960
L82680 78740
" />
</g>
<g style="fill:#840000; fill-opacity:0.0; 
stroke:#840000; stroke-width:100; stroke-opacity:1; 
stroke-linecap:round; stroke-linejoin:round;">
</g>
<g style="fill:#840000; fill-opacity:0.0; 
stroke:#840000; stroke-width:60; stroke-opacity:1; 
stroke-linecap:round; stroke-linejoin:round;">
<path d="M102360 77960
L102360 78740
" />
</g>
<g style="fill:#840000; fill-opacity:0.0; 
stroke:#840000; stroke-width:100; stroke-opacity:1; 
stroke-linecap:round; stroke-linejoin:round;">
</g>
<g style="fill:#840000; fill-opacity:0.0; 
stroke:#840000; stroke-width:60; stroke-opacity:1; 
stroke-linecap:round; stroke-linejoin:round;">
<path d="M14170 78580
L13880 78580
" />
<path d="M14020 78580
L14020 78070
L13970 78140
L13930 78190
L13880 78210
" />
</g>
<g style="fill:#840000; fill-opacity:0.0; 
stroke:#840000; stroke-width:100; stroke-opacity:1; 
stroke-linecap:round; stroke-linejoin:round;">
</g>
<g style="fill:#840000; fill-opacity:0.0; 
stroke:#840000; stroke-width:60; stroke-opacity:1; 
stroke-linecap:round; stroke-linejoin:round;">
<path d="M33560 78110
L33580 78090
L33630 78070
L33750 78070
L33800 78090
L33820 78110
L33850 78160
L33850 78210
L33820 78280
L33530 78580
L33850 78580
" />
</g>
<g style="fill:#840000; fill-opacity:0.0; 
stroke:#840000; stroke-width:100; stroke-opacity:1; 
stroke-linecap:round; stroke-linejoin:round;">
</g>
<g style="fill:#840000; fill-opacity:0.0; 
stroke:#840000; stroke-width:60; stroke-opacity:1; 
stroke-linecap:round; stroke-linejoin:round;">
<path d="M53220 78070
L53540 78070
L53370 78260
L53440 78260
L53490 78280
L53510 78310
L53540 78360
L53540 78480
L53510 78530
L53490 78550
L53440 78580
L53300 78580
L53250 78550
L53220 78530
" />
</g>
<g style="fill:#840000; fill-opacity:0.0; 
stroke:#840000; stroke-width:100; stroke-opacity:1; 
stroke-linecap:round; stroke-linejoin:round;">
</g>
<g style="fill:#840000; fill-opacity:0.0; 
stroke:#840000; stroke-width:60; stroke-opacity:1; 
stroke-linecap:round; stroke-linejoin:round;">
<path d="M73170 78240
L73170 78580
" />
<path d="M73050 78040
L72930 78410
L73240 78410
" />
</g>
<g style="fill:#840000; fill-opacity:0.0; 
stroke:#840000; stroke-width:100; stroke-opacity:1; 
stroke-linecap:round; stroke-linejoin:round;">
</g>
<g style="fill:#840000; fill-opacity:0.0; 
stroke:#840000; stroke-width:60; stroke-opacity:1; 
stroke-linecap:round; stroke-linejoin:round;">
<path d="M92880 78070
L92640 78070
L92620 78310
L92640 78280
L92690 78260
L92810 78260
L92860 78280
L92880 78310
L92910 78360
L92910 78480
L92880 78530
L92860 78550
L92810 78580
L92690 78580
L92640 78550
L92620 78530
" />
</g>
<g style="fill:#840000; fill-opacity:0.0; 
stroke:#840000; stroke-width:100; stroke-opacity:1; 
stroke-linecap:round; stroke-linejoin:round;">
</g>
<g style="fill:#840000; fill-opacity:0.0; 
stroke:#840000; stroke-width:60; stroke-opacity:1; 
stroke-linecap:round; stroke-linejoin:round;">
<path d="M112540 78070
L112440 78070
L112390 78090
L112370 78110
L112320 78190
L112300 78280
L112300 78480
L112320 78530
L112350 78550
L112390 78580
L112490 78580
L112540 78550
L112560 78530
L112590 78480
L112590 78360
L112560 78310
L112540 78280
L112490 78260
L112390 78260
L112350 78280
L112320 78310
L112300 78360
" />
</g>
<g style="fill:#840000; fill-opacity:0.0; 
stroke:#840000; stroke-width:100; stroke-opacity:1; 
stroke-linecap:round; stroke-linejoin:round;">
</g>
<g style="fill:#840000; fill-opacity:0.0; 
stroke:#840000; stroke-width:60; stroke-opacity:1; 
stroke-linecap:round; stroke-linejoin:round;">
<path d="M3940 23620
L4720 23620
" />
</g>
<g style="fill:#840000; fill-opacity:0.0; 
stroke:#840000; stroke-width:100; stroke-opacity:1; 
stroke-linecap:round; stroke-linejoin:round;">
</g>
<g style="fill:#840000; fill-opacity:0.0; 
stroke:#840000; stroke-width:60; stroke-opacity:1; 
stroke-linecap:round; stroke-linejoin:round;">
<path d="M3940 43310
L4720 43310
" />
</g>
<g style="fill:#840000; fill-opacity:0.0; 
stroke:#840000; stroke-width:100; stroke-opacity:1; 
stroke-linecap:round; stroke-linejoin:round;">
</g>
<g style="fill:#840000; fill-opacity:0.0; 
stroke:#840000; stroke-width:60; stroke-opacity:1; 
stroke-linecap:round; stroke-linejoin:round;">
<path d="M3940 62990
L4720 62990
" />
</g>
<g style="fill:#840000; fill-opacity:0.0; 
stroke:#840000; stroke-width:100; stroke-opacity:1; 
stroke-linecap:round; stroke-linejoin:round;">
</g>
<g style="fill:#840000; fill-opacity:0.0; 
stroke:#840000; stroke-width:60; stroke-opacity:1; 
stroke-linecap:round; stroke-linejoin:round;">
<path d="M4210 13860
L4450 13860
" />
<path d="M4160 14010
L4330 13500
L4500 14010
" />
</g>
<g style="fill:#840000; fill-opacity:0.0; 
stroke:#840000; stroke-width:100; stroke-opacity:1; 
stroke-linecap:round; stroke-linejoin:round;">
</g>
<g style="fill:#840000; fill-opacity:0.0; 
stroke:#840000; stroke-width:60; stroke-opacity:1; 
stroke-linecap:round; stroke-linejoin:round;">
<path d="M4370 33420
L4440 33440
L4470 33470
L4490 33520
L4490 33590
L4470 33640
L4440 33660
L4400 33690
L4200 33690
L4200 33180
L4370 33180
L4420 33200
L4440 33220
L4470 33270
L4470 33320
L4440 33370
L4420 33390
L4370 33420
L4200 33420
" />
</g>
<g style="fill:#840000; fill-opacity:0.0; 
stroke:#840000; stroke-width:100; stroke-opacity:1; 
stroke-linecap:round; stroke-linejoin:round;">
</g>
<g style="fill:#840000; fill-opacity:0.0; 
stroke:#840000; stroke-width:60; stroke-opacity:1; 
stroke-linecap:round; stroke-linejoin:round;">
<path d="M4490 53330
L4470 53350
L4400 53380
L4350 53380
L4270 53350
L4230 53300
L4200 53250
L4180 53160
L4180 53080
L4200 52990
L4230 52940
L4270 52890
L4350 52870
L4400 52870
L4470 52890
L4490 52910
" />
</g>
<g style="fill:#840000; fill-opacity:0.0; 
stroke:#840000; stroke-width:100; stroke-opacity:1; 
stroke-linecap:round; stroke-linejoin:round;">
</g>
<g style="fill:#840000; fill-opacity:0.0; 
stroke:#840000; stroke-width:60; stroke-opacity:1; 
stroke-linecap:round; stroke-linejoin:round;">
<path d="M4200 73060
L4200 72550
L4320 72550
L4400 72570
L4440 72620
L4470 72670
L4490 72760
L4490 72840
L4470 72930
L4440 72980
L4400 73030
L4320 73060
L4200 73060
" />
</g>
<g style="fill:#840000; fill-opacity:0.0; 
stroke:#840000; stroke-width:100; stroke-opacity:1; 
stroke-linecap:round; stroke-linejoin:round;">
</g>
<g style="fill:#840000; fill-opacity:0.0; 
stroke:#840000; stroke-width:60; stroke-opacity:1; 
stroke-linecap:round; stroke-linejoin:round;">
<path d="M112990 23620
L112210 23620
" />
</g>
<g style="fill:#840000; fill-opacity:0.0; 
stroke:#840000; stroke-width:100; stroke-opacity:1; 
stroke-linecap:round; stroke-linejoin:round;">
</g>
<g style="fill:#840000; fill-opacity:0.0; 
stroke:#840000; stroke-width:60; stroke-opacity:1; 
stroke-linecap:round; stroke-linejoin:round;">
<path d="M112990 43310
L112210 43310
" />
</g>
<g style="fill:#840000; fill-opacity:0.0; 
stroke:#840000; stroke-width:100; stroke-opacity:1; 
stroke-linecap:round; stroke-linejoin:round;">
</g>
<g style="fill:#840000; fill-opacity:0.0; 
stroke:#840000; stroke-width:60; stroke-opacity:1; 
stroke-linecap:round; stroke-linejoin:round;">
<path d="M112990 62990
L112210 62990
" />
</g>
<g style="fill:#840000; fill-opacity:0.0; 
stroke:#840000; stroke-width:100; stroke-opacity:1; 
stroke-linecap:round; stroke-linejoin:round;">
</g>
<g style="fill:#840000; fill-opacity:0.0; 
stroke:#840000; stroke-width:60; stroke-opacity:1; 
stroke-linecap:round; stroke-linejoin:round;">
<path d="M112480 13860
L112720 13860
" />
<path d="M112430 14010
L112600 13500
L112770 14010
" />
</g>
<g style="fill:#840000; fill-opacity:0.0; 
stroke:#840000; stroke-width:100; stroke-opacity:1; 
stroke-linecap:round; stroke-linejoin:round;">
</g>
<g style="fill:#840000; fill-opacity:0.0; 
stroke:#840000; stroke-width:60; stroke-opacity:1; 
stroke-linecap:round; stroke-linejoin:round;">
<path d="M112640 33420
L112710 33440
L112740 33470
L112760 33520
L112760 33590
L112740 33640
L112710 33660
L112670 33690
L112470 33690
L112470 33180
L112640 33180
L112690 33200
L112710 33220
L112740 33270
L112740 33320
L112710 33370
L112690 33390
L112640 33420
L112470 33420
" />
</g>
<g style="fill:#840000; fill-opacity:0.0; 
stroke:#840000; stroke-width:100; stroke-opacity:1; 
stroke-linecap:round; stroke-linejoin:round;">
</g>
<g style="fill:#840000; fill-opacity:0.0; 
stroke:#840000; stroke-width:60; stroke-opacity:1; 
stroke-linecap:round; stroke-linejoin:round;">
<path d="M112760 53330
L112740 53350
L112670 53380
L112620 53380
L112540 53350
L112500 53300
L112470 53250
L112450 53160
L112450 53080
L112470 52990
L112500 52940
L112540 52890
L112620 52870
L112670 52870
L112740 52890
L112760 52910
" />
</g>
<g style="fill:#840000; fill-opacity:0.0; 
stroke:#840000; stroke-width:100; stroke-opacity:1; 
stroke-linecap:round; stroke-linejoin:round;">
</g>
<g style="fill:#840000; fill-opacity:0.0; 
stroke:#840000; stroke-width:60; stroke-opacity:1; 
stroke-linecap:round; stroke-linejoin:round;">
<path d="M112470 73060
L112470 72550
L112590 72550
L112670 72570
L112710 72620
L112740 72670
L112760 72760
L112760 72840
L112740 72930
L112710 72980
L112670 73030
L112590 73060
L112470 73060
" />
</g>
<g style="fill:#840000; fill-opacity:0.0; 
stroke:#840000; stroke-width:100; stroke-opacity:1; 
stroke-linecap:round; stroke-linejoin:round;">
</g>
<g style="fill:#840000; fill-opacity:0.0; 
stroke:#840000; stroke-width:60; stroke-opacity:1; 
stroke-linecap:round; stroke-linejoin:round;">
<path d="M78880 76290
L78880 75700
L79020 75700
L79110 75730
L79160 75790
L79190 75840
L79220 75950
L79220 76040
L79190 76150
L79160 76210
L79110 76260
L79020 76290
L78880 76290
" />
<path d="M79720 76290
L79720 75980
L79700 75930
L79640 75900
L79530 75900
L79470 75930
" />
<path d="M79720 76260
L79670 76290
L79530 76290
L79470 76260
L79440 76210
L79440 76150
L79470 76100
L79530 76070
L79670 76070
L79720 76040
" />
<path d="M79920 75900
L80140 75900
" />
<path d="M80000 75700
L80000 76210
L80030 76260
L80080 76290
L80140 76290
" />
<path d="M80570 76260
L80510 76290
L80400 76290
L80340 76260
L80310 76210
L80310 75980
L80340 75930
L80400 75900
L80510 75900
L80570 75930
L80590 75980
L80590 76040
L80310 76100
" />
<path d="M80850 76240
L80880 76260
L80850 76290
L80820 76260
L80850 76240
L80850 76290
" />
<path d="M80850 75930
L80880 75950
L80850 75980
L80820 75950
L80850 75930
L80850 75980
" />
</g>
<g style="fill:#840000; fill-opacity:0.0; 
stroke:#840000; stroke-width:100; stroke-opacity:1; 
stroke-linecap:round; stroke-linejoin:round;">
</g>
<g style="fill:#840000; fill-opacity:0.0; 
stroke:#840000; stroke-width:60; stroke-opacity:1; 
stroke-linecap:round; stroke-linejoin:round;">
<path d="M69690 76580
L112210 76580
" />
</g>
<g style="fill:#840000; fill-opacity:0.0; 
stroke:#840000; stroke-width:100; stroke-opacity:1; 
stroke-linecap:round; stroke-linejoin:round;">
</g>
<g style="fill:#840000; fill-opacity:0.0; 
stroke:#840000; stroke-width:60; stroke-opacity:1; 
stroke-linecap:round; stroke-linejoin:round;">
<path d="M70220 77390
L70220 76800
" />
<path d="M70560 77390
L70300 77050
" />
<path d="M70560 76800
L70220 77140
" />
<path d="M70810 77390
L70810 77000
" />
<path d="M70810 76800
L70780 76830
L70810 76860
L70840 76830
L70810 76800
L70810 76860
" />
<path d="M71430 77340
L71400 77360
L71320 77390
L71260 77390
L71170 77360
L71120 77310
L71090 77250
L71060 77140
L71060 77050
L71090 76940
L71120 76890
L71170 76830
L71260 76800
L71320 76800
L71400 76830
L71430 76860
" />
<path d="M71930 77390
L71930 77080
L71910 77030
L71850 77000
L71740 77000
L71680 77030
" />
<path d="M71930 77360
L71880 77390
L71740 77390
L71680 77360
L71650 77310
L71650 77250
L71680 77200
L71740 77170
L71880 77170
L71930 77140
" />
<path d="M72460 77390
L72460 76800
" />
<path d="M72460 77360
L72410 77390
L72290 77390
L72240 77360
L72210 77340
L72180 77280
L72180 77110
L72210 77050
L72240 77030
L72290 77000
L72410 77000
L72460 77030
" />
<path d="M73190 77080
L73390 77080
" />
<path d="M73470 77390
L73190 77390
L73190 76800
L73470 76800
" />
<path d="M73720 77340
L73750 77360
L73720 77390
L73690 77360
L73720 77340
L73720 77390
" />
<path d="M74000 77390
L74000 76800
L74140 76800
L74230 76830
L74280 76890
L74310 76940
L74340 77050
L74340 77140
L74310 77250
L74280 77310
L74230 77360
L74140 77390
L74000 77390
" />
<path d="M74590 77340
L74620 77360
L74590 77390
L74560 77360
L74590 77340
L74590 77390
" />
<path d="M74840 77220
L75120 77220
" />
<path d="M74790 77390
L74980 76800
L75180 77390
" />
<path d="M75380 77340
L75410 77360
L75380 77390
L75350 77360
L75380 77340
L75380 77390
" />
<path d="M76560 77390
L76560 76800
" />
<path d="M76620 77170
L76790 77390
" />
<path d="M76790 77000
L76560 77220
" />
<path d="M77040 77390
L77040 77000
" />
<path d="M77040 76800
L77010 76830
L77040 76860
L77070 76830
L77040 76800
L77040 76860
" />
<path d="M77570 77360
L77520 77390
L77400 77390
L77350 77360
L77320 77340
L77290 77280
L77290 77110
L77320 77050
L77350 77030
L77400 77000
L77520 77000
L77570 77030
" />
<path d="M78080 77390
L78080 77080
L78060 77030
L78000 77000
L77890 77000
L77830 77030
" />
<path d="M78080 77360
L78030 77390
L77890 77390
L77830 77360
L77800 77310
L77800 77250
L77830 77200
L77890 77170
L78030 77170
L78080 77140
" />
<path d="M78610 77390
L78610 76800
" />
<path d="M78610 77360
L78560 77390
L78440 77390
L78390 77360
L78360 77340
L78330 77280
L78330 77110
L78360 77050
L78390 77030
L78440 77000
L78560 77000
L78610 77030
" />
<path d="M79590 77000
L79590 77390
" />
<path d="M79450 76770
L79310 77200
L79680 77200
" />
<path d="M79900 77340
L79930 77360
L79900 77390
L79870 77360
L79900 77340
L79900 77390
" />
<path d="M80290 76800
L80350 76800
L80410 76830
L80430 76860
L80460 76910
L80490 77030
L80490 77170
L80460 77280
L80430 77340
L80410 77360
L80350 77390
L80290 77390
L80240 77360
L80210 77340
L80180 77280
L80150 77170
L80150 77030
L80180 76910
L80210 76860
L80240 76830
L80290 76800
" />
<path d="M80740 77340
L80770 77360
L80740 77390
L80710 77360
L80740 77340
L80740 77390
" />
<path d="M81270 76800
L81160 76800
L81100 76830
L81080 76860
L81020 76940
L80990 77050
L80990 77280
L81020 77340
L81050 77360
L81100 77390
L81220 77390
L81270 77360
L81300 77340
L81330 77280
L81330 77140
L81300 77080
L81270 77050
L81220 77030
L81100 77030
L81050 77050
L81020 77080
L80990 77140
" />
</g>
<g style="fill:#840000; fill-opacity:0.0; 
stroke:#840000; stroke-width:100; stroke-opacity:1; 
stroke-linecap:round; stroke-linejoin:round;">
</g>
<g style="fill:#840000; fill-opacity:0.0; 
stroke:#840000; stroke-width:60; stroke-opacity:1; 
stroke-linecap:round; stroke-linejoin:round;">
<path d="M69690 75400
L112210 75400
" />
</g>
<g style="fill:#840000; fill-opacity:0.0; 
stroke:#840000; stroke-width:100; stroke-opacity:1; 
stroke-linecap:round; stroke-linejoin:round;">
</g>
<g style="fill:#840000; fill-opacity:0.0; 
stroke:#840000; stroke-width:120; stroke-opacity:1; 
stroke-linecap:round; stroke-linejoin:round;">
<path d="M104020 76290
L103820 76010
" />
<path d="M103680 76290
L103680 75700
L103910 75700
L103960 75730
L103990 75760
L104020 75810
L104020 75900
L103990 75950
L103960 75980
L103910 76010
L103680 76010
" />
<path d="M104500 76260
L104440 76290
L104330 76290
L104270 76260
L104240 76210
L104240 75980
L104270 75930
L104330 75900
L104440 75900
L104500 75930
L104520 75980
L104520 76040
L104240 76100
" />
<path d="M104720 75900
L104860 76290
L105010 75900
" />
<path d="M105230 76240
L105260 76260
L105230 76290
L105200 76260
L105230 76240
L105230 76290
" />
<path d="M105230 75930
L105260 75950
L105230 75980
L105200 75950
L105230 75930
L105230 75980
" />
</g>
<g style="fill:#840000; fill-opacity:0.0; 
stroke:#840000; stroke-width:100; stroke-opacity:1; 
stroke-linecap:round; stroke-linejoin:round;">
</g>
<g style="fill:#840000; fill-opacity:0.0; 
stroke:#840000; stroke-width:60; stroke-opacity:1; 
stroke-linecap:round; stroke-linejoin:round;">
<path d="M70190 76260
L70280 76290
L70420 76290
L70470 76260
L70500 76240
L70530 76180
L70530 76120
L70500 76070
L70470 76040
L70420 76010
L70300 75980
L70250 75950
L70220 75930
L70190 75870
L70190 75810
L70220 75760
L70250 75730
L70300 75700
L70450 75700
L70530 75730
" />
<path d="M70780 76290
L70780 75900
" />
<path d="M70780 75700
L70750 75730
L70780 75760
L70810 75730
L70780 75700
L70780 75760
" />
<path d="M71000 75900
L71310 75900
L71000 76290
L71310 76290
" />
<path d="M71770 76260
L71710 76290
L71600 76290
L71540 76260
L71510 76210
L71510 75980
L71540 75930
L71600 75900
L71710 75900
L71770 75930
L71790 75980
L71790 76040
L71510 76100
" />
<path d="M72050 76240
L72080 76260
L72050 76290
L72020 76260
L72050 76240
L72050 76290
" />
<path d="M72050 75930
L72080 75950
L72050 75980
L72020 75950
L72050 75930
L72050 75980
" />
<path d="M72750 76120
L73030 76120
" />
<path d="M72700 76290
L72890 75700
L73090 76290
" />
<path d="M73540 75900
L73540 76290
" />
<path d="M73400 75670
L73260 76100
L73630 76100
" />
</g>
<g style="fill:#840000; fill-opacity:0.0; 
stroke:#840000; stroke-width:100; stroke-opacity:1; 
stroke-linecap:round; stroke-linejoin:round;">
</g>
<g style="fill:#840000; fill-opacity:0.0; 
stroke:#840000; stroke-width:60; stroke-opacity:1; 
stroke-linecap:round; stroke-linejoin:round;">
<path d="M103680 77390
L103680 76800
" />
<path d="M104210 77390
L104210 76800
" />
<path d="M104210 77360
L104160 77390
L104040 77390
L103990 77360
L103960 77340
L103930 77280
L103930 77110
L103960 77050
L103990 77030
L104040 77000
L104160 77000
L104210 77030
" />
<path d="M104490 77340
L104520 77360
L104490 77390
L104460 77360
L104490 77340
L104490 77390
" />
<path d="M104490 77030
L104520 77050
L104490 77080
L104460 77050
L104490 77030
L104490 77080
" />
<path d="M105530 77390
L105190 77390
" />
<path d="M105360 77390
L105360 76800
L105300 76890
L105250 76940
L105190 76970
" />
<path d="M106200 76770
L105700 77530
" />
<path d="M106710 77390
L106370 77390
" />
<path d="M106540 77390
L106540 76800
L106480 76890
L106430 76940
L106370 76970
" />
</g>
<g style="fill:#840000; fill-opacity:0.0; 
stroke:#840000; stroke-width:100; stroke-opacity:1; 
stroke-linecap:round; stroke-linejoin:round;">
</g>
<g style="fill:#840000; fill-opacity:0.0; 
stroke:#840000; stroke-width:60; stroke-opacity:1; 
stroke-linecap:round; stroke-linejoin:round;">
<path d="M69690 73820
L112210 73820
" />
</g>
<g style="fill:#840000; fill-opacity:0.0; 
stroke:#840000; stroke-width:100; stroke-opacity:1; 
stroke-linecap:round; stroke-linejoin:round;">
</g>
<g style="fill:#840000; fill-opacity:0.0; 
stroke:#840000; stroke-width:160; stroke-opacity:1; 
stroke-linecap:round; stroke-linejoin:round;">
<path d="M70260 74090
L70710 74090
" />
<path d="M70390 74880
L70480 74090
" />
<path d="M70880 74880
L70940 74360
" />
<path d="M70970 74090
L70930 74130
L70960 74170
L71010 74130
L70970 74090
L70960 74170
" />
<path d="M71210 74360
L71510 74360
" />
<path d="M71350 74090
L71270 74770
L71300 74840
L71370 74880
L71450 74880
" />
<path d="M71820 74880
L71750 74840
L71720 74770
L71800 74090
" />
<path d="M72420 74840
L72340 74880
L72190 74880
L72120 74840
L72090 74770
L72130 74470
L72180 74390
L72250 74360
L72400 74360
L72480 74390
L72510 74470
L72500 74540
L72110 74620
" />
<path d="M72800 74810
L72840 74840
L72800 74880
L72760 74840
L72800 74810
L72800 74880
" />
<path d="M72860 74390
L72890 74430
L72850 74470
L72810 74430
L72860 74390
L72850 74470
" />
</g>
<g style="fill:#840000; fill-opacity:0.0; 
stroke:#840000; stroke-width:100; stroke-opacity:1; 
stroke-linecap:round; stroke-linejoin:round;">
</g>
<g style="fill:#840000; fill-opacity:0.0; 
stroke:#840000; stroke-width:60; stroke-opacity:1; 
stroke-linecap:round; stroke-linejoin:round;">
<path d="M70420 73060
L70220 73060
" />
<path d="M70220 73370
L70220 72780
L70500 72780
" />
<path d="M70730 73370
L70730 72980
" />
<path d="M70730 72780
L70700 72810
L70730 72840
L70760 72810
L70730 72780
L70730 72840
" />
<path d="M71090 73370
L71040 73340
L71010 73290
L71010 72780
" />
<path d="M71550 73340
L71490 73370
L71380 73370
L71320 73340
L71290 73290
L71290 73060
L71320 73010
L71380 72980
L71490 72980
L71550 73010
L71570 73060
L71570 73120
L71290 73180
" />
<path d="M71830 73320
L71860 73340
L71830 73370
L71800 73340
L71830 73320
L71830 73370
" />
<path d="M71830 73010
L71860 73030
L71830 73060
L71800 73030
L71830 73010
L71830 73060
" />
<path d="M72950 73430
L72900 73400
L72840 73340
L72760 73260
L72700 73230
L72640 73230
" />
<path d="M72670 73370
L72620 73340
L72560 73290
L72530 73180
L72530 72980
L72560 72870
L72620 72810
L72670 72780
L72790 72780
L72840 72810
L72900 72870
L72930 72980
L72930 73180
L72900 73290
L72840 73340
L72790 73370
L72670 73370
" />
<path d="M73520 73320
L73490 73340
L73410 73370
L73350 73370
L73260 73340
L73210 73290
L73180 73230
L73150 73120
L73150 73030
L73180 72920
L73210 72870
L73260 72810
L73350 72780
L73410 72780
L73490 72810
L73520 72840
" />
<path d="M73740 72840
L73770 72810
L73830 72780
L73970 72780
L74020 72810
L74050 72840
L74080 72890
L74080 72950
L74050 73030
L73710 73370
L74080 73370
" />
<path d="M74670 73320
L74640 73340
L74560 73370
L74500 73370
L74410 73340
L74360 73290
L74330 73230
L74300 73120
L74300 73030
L74330 72920
L74360 72870
L74410 72810
L74500 72780
L74560 72780
L74640 72810
L74670 72840
" />
<path d="M75000 73370
L74950 73340
L74920 73320
L74890 73260
L74890 73090
L74920 73030
L74950 73010
L75000 72980
L75090 72980
L75150 73010
L75170 73030
L75200 73090
L75200 73260
L75170 73320
L75150 73340
L75090 73370
L75000 73370
" />
<path d="M75450 72980
L75450 73370
" />
<path d="M75450 73030
L75480 73010
L75530 72980
L75620 72980
L75680 73010
L75700 73060
L75700 73370
" />
<path d="M75900 72980
L76120 72980
" />
<path d="M75980 72780
L75980 73290
L76010 73340
L76060 73370
L76120 73370
" />
<path d="M76320 73370
L76320 72980
" />
<path d="M76320 73090
L76350 73030
L76380 73010
L76430 72980
L76490 72980
" />
<path d="M76770 73370
L76720 73340
L76690 73320
L76660 73260
L76660 73090
L76690 73030
L76720 73010
L76770 72980
L76860 72980
L76920 73010
L76940 73030
L76970 73090
L76970 73260
L76940 73320
L76920 73340
L76860 73370
L76770 73370
" />
<path d="M77300 73370
L77250 73340
L77220 73290
L77220 72780
" />
<path d="M77530 73320
L77560 73340
L77530 73370
L77500 73340
L77530 73320
L77530 73370
" />
<path d="M77780 73340
L77840 73370
L77950 73370
L78010 73340
L78040 73290
L78040 73260
L78010 73200
L77950 73180
L77870 73180
L77810 73150
L77780 73090
L77780 73060
L77810 73010
L77870 72980
L77950 72980
L78010 73010
" />
<path d="M78540 73340
L78490 73370
L78370 73370
L78320 73340
L78290 73320
L78260 73260
L78260 73090
L78290 73030
L78320 73010
L78370 72980
L78490 72980
L78540 73010
" />
<path d="M78800 73370
L78800 72780
" />
<path d="M79050 73370
L79050 73060
L79030 73010
L78970 72980
L78880 72980
L78830 73010
L78800 73030
" />
</g>
<g style="fill:#840000; fill-opacity:0.0; 
stroke:#840000; stroke-width:100; stroke-opacity:1; 
stroke-linecap:round; stroke-linejoin:round;">
</g>
<g style="fill:#840000; fill-opacity:0.0; 
stroke:#840000; stroke-width:60; stroke-opacity:1; 
stroke-linecap:round; stroke-linejoin:round;">
<path d="M69690 71460
L112210 71460
" />
</g>
<g style="fill:#840000; fill-opacity:0.0; 
stroke:#840000; stroke-width:100; stroke-opacity:1; 
stroke-linecap:round; stroke-linejoin:round;">
</g>
<g style="fill:#840000; fill-opacity:0.0; 
stroke:#840000; stroke-width:60; stroke-opacity:1; 
stroke-linecap:round; stroke-linejoin:round;">
<path d="M70190 72280
L70280 72310
L70420 72310
L70470 72280
L70500 72260
L70530 72200
L70530 72140
L70500 72090
L70470 72060
L70420 72030
L70300 72000
L70250 71970
L70220 71950
L70190 71890
L70190 71830
L70220 71780
L70250 71750
L70300 71720
L70450 71720
L70530 71750
" />
<path d="M70780 72310
L70780 71720
" />
<path d="M71030 72310
L71030 72000
L71010 71950
L70950 71920
L70860 71920
L70810 71950
L70780 71970
" />
<path d="M71540 72280
L71480 72310
L71370 72310
L71310 72280
L71280 72230
L71280 72000
L71310 71950
L71370 71920
L71480 71920
L71540 71950
L71560 72000
L71560 72060
L71280 72120
" />
<path d="M72050 72280
L71990 72310
L71880 72310
L71820 72280
L71790 72230
L71790 72000
L71820 71950
L71880 71920
L71990 71920
L72050 71950
L72070 72000
L72070 72060
L71790 72120
" />
<path d="M72250 71920
L72470 71920
" />
<path d="M72330 71720
L72330 72230
L72360 72280
L72410 72310
L72470 72310
" />
<path d="M72670 72260
L72700 72280
L72670 72310
L72640 72280
L72670 72260
L72670 72310
" />
<path d="M72670 71950
L72700 71970
L72670 72000
L72640 71970
L72670 71950
L72670 72000
" />
<path d="M73820 71690
L73320 72450
" />
</g>
<g style="fill:#840000; fill-opacity:0.0; 
stroke:#840000; stroke-width:100; stroke-opacity:1; 
stroke-linecap:round; stroke-linejoin:round;">
</g>
<g style="fill:#840000; fill-opacity:0.0; 
stroke:#840000; stroke-width:60; stroke-opacity:1; 
stroke-linecap:round; stroke-linejoin:round;">
<path d="M77560 75400
L77560 76580
" />
</g>
<g style="fill:#840000; fill-opacity:0.0; 
stroke:#840000; stroke-width:100; stroke-opacity:1; 
stroke-linecap:round; stroke-linejoin:round;">
</g>
<g style="fill:#840000; fill-opacity:0.0; 
stroke:#840000; stroke-width:60; stroke-opacity:1; 
stroke-linecap:round; stroke-linejoin:round;">
<path d="M102760 75400
L102760 77960
" />
</g>
<g style="fill:#840000; fill-opacity:0.0; 
stroke:#840000; stroke-width:0; stroke-opacity:1; 
stroke-linecap:round; stroke-linejoin:round;">
</g>
<g style="fill:#840000; fill-opacity:0.0; 
stroke:#840000; stroke-width:100; stroke-opacity:1; 
stroke-linecap:round; stroke-linejoin:round;">
<rect x="26100" y="21500" width="800" height="2000" rx="0" />
</g>
<g style="fill:#840000; fill-opacity:0.0; 
stroke:#840000; stroke-width:60; stroke-opacity:1; 
stroke-linecap:round; stroke-linejoin:round;">
<path d="M26500 21500
L26500 21000
" />
<path d="M26500 23500
L26500 24000
" />
</g>
<g style="fill:#008484; fill-opacity:0.0; 
stroke:#008484; stroke-width:60; stroke-opacity:1; 
stroke-linecap:round; stroke-linejoin:round;">
<path d="M27560 22590
L27320 22750
" />
<path d="M27560 22870
L27060 22870
L27060 22680
L27080 22630
L27100 22610
L27150 22590
L27220 22590
L27270 22610
L27290 22630
L27320 22680
L27320 22870
" />
<path d="M27560 22110
L27560 22390
" />
<path d="M27560 22250
L27060 22250
L27130 22300
L27180 22350
L27200 22390
" />
<path d="M26300 23080
L26280 23060
L26260 23010
L26260 22890
L26280 22850
L26300 22820
L26350 22800
L26400 22800
L26470 22820
L26760 23110
L26760 22800
" />
<path d="M26760 22580
L26260 22580
" />
<path d="M26570 22530
L26760 22390
" />
<path d="M26420 22390
L26610 22580
" />
<path d="M26300 22200
L26280 22180
L26260 22130
L26260 22010
L26280 21970
L26300 21940
L26350 21920
L26400 21920
L26470 21940
L26760 22230
L26760 21920
" />
</g>
<g style="fill:#008484; fill-opacity:0.0; 
stroke:#008484; stroke-width:0; stroke-opacity:1; 
stroke-linecap:round; stroke-linejoin:round;">
</g>
<g style="fill:#840000; fill-opacity:0.0; 
stroke:#840000; stroke-width:0; stroke-opacity:1; 
stroke-linecap:round; stroke-linejoin:round;">
</g>
<g style="fill:#840000; fill-opacity:0.0; 
stroke:#840000; stroke-width:100; stroke-opacity:1; 
stroke-linecap:round; stroke-linejoin:round;">
<rect x="26100" y="26500" width="800" height="2000" rx="0" />
</g>
<g style="fill:#840000; fill-opacity:0.0; 
stroke:#840000; stroke-width:60; stroke-opacity:1; 
stroke-linecap:round; stroke-linejoin:round;">
<path d="M26500 26500
L26500 26000
" />
<path d="M26500 28500
L26500 29000
" />
</g>
<g style="fill:#008484; fill-opacity:0.0; 
stroke:#008484; stroke-width:60; stroke-opacity:1; 
stroke-linecap:round; stroke-linejoin:round;">
<path d="M27560 27590
L27320 27750
" />
<path d="M27560 27870
L27060 27870
L27060 27680
L27080 27630
L27100 27610
L27150 27590
L27220 27590
L27270 27610
L27290 27630
L27320 27680
L27320 27870
" />
<path d="M27100 27390
L27080 27370
L27060 27320
L27060 27200
L27080 27160
L27100 27130
L27150 27110
L27200 27110
L27270 27130
L27560 27420
L27560 27110
" />
<path d="M26760 27560
L26760 27840
" />
<path d="M26760 27700
L26260 27700
L26330 27750
L26380 27800
L26400 27840
" />
<path d="M26760 27340
L26260 27340
" />
<path d="M26570 27290
L26760 27150
" />
<path d="M26420 27150
L26610 27340
" />
</g>
<g style="fill:#008484; fill-opacity:0.0; 
stroke:#008484; stroke-width:0; stroke-opacity:1; 
stroke-linecap:round; stroke-linejoin:round;">
</g>
<g style="fill:#840000; fill-opacity:0.0; 
stroke:#840000; stroke-width:0; stroke-opacity:1; 
stroke-linecap:round; stroke-linejoin:round;">
</g>
<g style="fill:#840000; fill-opacity:0.0; 
stroke:#840000; stroke-width:100; stroke-opacity:1; 
stroke-linecap:round; stroke-linejoin:round;">
<rect x="39100" y="21500" width="800" height="2000" rx="0" />
</g>
<g style="fill:#840000; fill-opacity:0.0; 
stroke:#840000; stroke-width:60; stroke-opacity:1; 
stroke-linecap:round; stroke-linejoin:round;">
<path d="M39500 21500
L39500 21000
" />
<path d="M39500 23500
L39500 24000
" />
</g>
<g style="fill:#008484; fill-opacity:0.0; 
stroke:#008484; stroke-width:60; stroke-opacity:1; 
stroke-linecap:round; stroke-linejoin:round;">
<path d="M40560 22590
L40320 22750
" />
<path d="M40560 22870
L40060 22870
L40060 22680
L40080 22630
L40100 22610
L40150 22590
L40220 22590
L40270 22610
L40290 22630
L40320 22680
L40320 22870
" />
<path d="M40060 22420
L40060 22110
L40250 22280
L40250 22200
L40270 22160
L40290 22130
L40340 22110
L40460 22110
L40510 22130
L40530 22160
L40560 22200
L40560 22350
L40530 22390
L40510 22420
" />
<path d="M39300 23080
L39280 23060
L39260 23010
L39260 22890
L39280 22850
L39300 22820
L39350 22800
L39400 22800
L39470 22820
L39760 23110
L39760 22800
" />
<path d="M39760 22580
L39260 22580
" />
<path d="M39570 22530
L39760 22390
" />
<path d="M39420 22390
L39610 22580
" />
<path d="M39300 22200
L39280 22180
L39260 22130
L39260 22010
L39280 21970
L39300 21940
L39350 21920
L39400 21920
L39470 21940
L39760 22230
L39760 21920
" />
</g>
<g style="fill:#008484; fill-opacity:0.0; 
stroke:#008484; stroke-width:0; stroke-opacity:1; 
stroke-linecap:round; stroke-linejoin:round;">
</g>
<g style="fill:#840000; fill-opacity:0.0; 
stroke:#840000; stroke-width:0; stroke-opacity:1; 
stroke-linecap:round; stroke-linejoin:round;">
</g>
<g style="fill:#840000; fill-opacity:0.0; 
stroke:#840000; stroke-width:100; stroke-opacity:1; 
stroke-linecap:round; stroke-linejoin:round;">
<rect x="39100" y="26500" width="800" height="2000" rx="0" />
</g>
<g style="fill:#840000; fill-opacity:0.0; 
stroke:#840000; stroke-width:60; stroke-opacity:1; 
stroke-linecap:round; stroke-linejoin:round;">
<path d="M39500 26500
L39500 26000
" />
<path d="M39500 28500
L39500 29000
" />
</g>
<g style="fill:#008484; fill-opacity:0.0; 
stroke:#008484; stroke-width:60; stroke-opacity:1; 
stroke-linecap:round; stroke-linejoin:round;">
<path d="M40560 27590
L40320 27750
" />
<path d="M40560 27870
L40060 27870
L40060 27680
L40080 27630
L40100 27610
L40150 27590
L40220 27590
L40270 27610
L40290 27630
L40320 27680
L40320 27870
" />
<path d="M40220 27160
L40560 27160
" />
<path d="M40030 27280
L40390 27390
L40390 27090
" />
<path d="M39760 27560
L39760 27840
" />
<path d="M39760 27700
L39260 27700
L39330 27750
L39380 27800
L39400 27840
" />
<path d="M39760 27340
L39260 27340
" />
<path d="M39570 27290
L39760 27150
" />
<path d="M39420 27150
L39610 27340
" />
</g>
<g style="fill:#008400; fill-opacity:0.0; 
stroke:#008400; stroke-width:60; stroke-opacity:1; 
stroke-linecap:round; stroke-linejoin:round;">
<path d="M26500 21000
L26500 17500
" />
<path d="M26500 17500
L46000 17500
" />
</g>
<g style="fill:#000000; fill-opacity:0.0; 
stroke:#000000; stroke-width:60; stroke-opacity:1; 
stroke-linecap:round; stroke-linejoin:round;">
<path d="M40790 17200
L41080 17200
" />
<path d="M40740 17370
L40940 16770
L41140 17370
" />
<path d="M41330 17370
L41330 16970
" />
<path d="M41330 17090
L41360 17030
L41390 17000
L41450 16970
L41500 16970
" />
<path d="M41960 17370
L41960 16770
" />
<path d="M41960 17340
L41900 17370
L41790 17370
L41730 17340
L41700 17310
L41670 17260
L41670 17090
L41700 17030
L41730 17000
L41790 16970
L41900 16970
L41960 17000
" />
<path d="M42500 16970
L42500 17370
" />
<path d="M42240 16970
L42240 17290
L42270 17340
L42330 17370
L42410 17370
L42470 17340
L42500 17310
" />
<path d="M42780 17370
L42780 16970
" />
<path d="M42780 16770
L42750 16800
L42780 16830
L42810 16800
L42780 16770
L42780 16830
" />
<path d="M43070 16970
L43070 17370
" />
<path d="M43070 17030
L43100 17000
L43160 16970
L43240 16970
L43300 17000
L43330 17060
L43330 17370
" />
<path d="M43700 17370
L43640 17340
L43610 17310
L43580 17260
L43580 17090
L43610 17030
L43640 17000
L43700 16970
L43780 16970
L43840 17000
L43870 17030
L43900 17090
L43900 17260
L43870 17310
L43840 17340
L43780 17370
L43700 17370
" />
<path d="M44010 17430
L44470 17430
" />
<path d="M44530 16770
L44730 17370
L44930 16770
" />
<path d="M45380 17340
L45320 17370
L45210 17370
L45150 17340
L45120 17310
L45090 17260
L45090 17090
L45120 17030
L45150 17000
L45210 16970
L45320 16970
L45380 17000
" />
<path d="M45890 17340
L45830 17370
L45720 17370
L45660 17340
L45630 17310
L45600 17260
L45600 17090
L45630 17030
L45660 17000
L45720 16970
L45830 16970
L45890 17000
" />
<path d="M39490 20200
L39780 20200
" />
<path d="M39440 20370
L39640 19770
L39840 20370
" />
<path d="M40030 20370
L40030 19970
" />
<path d="M40030 20090
L40060 20030
L40090 20000
L40150 19970
L40200 19970
" />
<path d="M40660 20370
L40660 19770
" />
<path d="M40660 20340
L40600 20370
L40490 20370
L40430 20340
L40400 20310
L40370 20260
L40370 20090
L40400 20030
L40430 20000
L40490 19970
L40600 19970
L40660 20000
" />
<path d="M41200 19970
L41200 20370
" />
<path d="M40940 19970
L40940 20290
L40970 20340
L41030 20370
L41110 20370
L41170 20340
L41200 20310
" />
<path d="M41480 20370
L41480 19970
" />
<path d="M41480 19770
L41450 19800
L41480 19830
L41510 19800
L41480 19770
L41480 19830
" />
<path d="M41770 19970
L41770 20370
" />
<path d="M41770 20030
L41800 20000
L41860 19970
L41940 19970
L42000 20000
L42030 20060
L42030 20370
" />
<path d="M42400 20370
L42340 20340
L42310 20310
L42280 20260
L42280 20090
L42310 20030
L42340 20000
L42400 19970
L42480 19970
L42540 20000
L42570 20030
L42600 20090
L42600 20260
L42570 20310
L42540 20340
L42480 20370
L42400 20370
" />
<path d="M42710 20430
L43170 20430
" />
<path d="M43310 20370
L43310 19770
L43460 19770
L43540 19800
L43600 19860
L43630 19910
L43660 20030
L43660 20110
L43630 20230
L43600 20290
L43540 20340
L43460 20370
L43310 20370
" />
<path d="M43910 20370
L43910 19970
" />
<path d="M43910 20030
L43940 20000
L44000 19970
L44080 19970
L44140 20000
L44170 20060
L44170 20370
" />
<path d="M44170 20060
L44200 20000
L44260 19970
L44340 19970
L44400 20000
L44430 20060
L44430 20370
" />
<path d="M44710 20370
L44710 19770
L44940 19770
L45000 19800
L45030 19830
L45060 19890
L45060 19970
L45030 20030
L45000 20060
L44940 20090
L44710 20090
" />
<path d="M45310 20370
L45310 19970
" />
<path d="M45310 19770
L45280 19800
L45310 19830
L45340 19800
L45310 19770
L45310 19830
" />
<path d="M45600 19970
L45600 20370
" />
<path d="M45600 20030
L45630 20000
L45690 19970
L45770 19970
L45830 20000
L45860 20060
L45860 20370
" />
</g>
<g style="fill:#008400; fill-opacity:0.0; 
stroke:#008400; stroke-width:60; stroke-opacity:1; 
stroke-linecap:round; stroke-linejoin:round;">
<path d="M39500 21000
L39500 20500
" />
<path d="M39500 20500
L46000 20500
" />
</g>
<g style="fill:#000000; fill-opacity:0.0; 
stroke:#000000; stroke-width:60; stroke-opacity:1; 
stroke-linecap:round; stroke-linejoin:round;">
<path d="M39750 18700
L40040 18700
" />
<path d="M39700 18870
L39900 18270
L40100 18870
" />
<path d="M40290 18870
L40290 18470
" />
<path d="M40290 18590
L40320 18530
L40350 18500
L40410 18470
L40460 18470
" />
<path d="M40920 18870
L40920 18270
" />
<path d="M40920 18840
L40860 18870
L40750 18870
L40690 18840
L40660 18810
L40630 18760
L40630 18590
L40660 18530
L40690 18500
L40750 18470
L40860 18470
L40920 18500
" />
<path d="M41460 18470
L41460 18870
" />
<path d="M41200 18470
L41200 18790
L41230 18840
L41290 18870
L41370 18870
L41430 18840
L41460 18810
" />
<path d="M41740 18870
L41740 18470
" />
<path d="M41740 18270
L41710 18300
L41740 18330
L41770 18300
L41740 18270
L41740 18330
" />
<path d="M42030 18470
L42030 18870
" />
<path d="M42030 18530
L42060 18500
L42120 18470
L42200 18470
L42260 18500
L42290 18560
L42290 18870
" />
<path d="M42660 18870
L42600 18840
L42570 18810
L42540 18760
L42540 18590
L42570 18530
L42600 18500
L42660 18470
L42740 18470
L42800 18500
L42830 18530
L42860 18590
L42860 18760
L42830 18810
L42800 18840
L42740 18870
L42660 18870
" />
<path d="M42970 18930
L43430 18930
" />
<path d="M43570 18870
L43570 18270
L43720 18270
L43800 18300
L43860 18360
L43890 18410
L43920 18530
L43920 18610
L43890 18730
L43860 18790
L43800 18840
L43720 18870
L43570 18870
" />
<path d="M44170 18470
L44170 19070
" />
<path d="M44170 18500
L44230 18470
L44340 18470
L44400 18500
L44430 18530
L44460 18590
L44460 18760
L44430 18810
L44400 18840
L44340 18870
L44230 18870
L44170 18840
" />
<path d="M44710 18870
L44710 18270
L44940 18270
L45000 18300
L45030 18330
L45060 18390
L45060 18470
L45030 18530
L45000 18560
L44940 18590
L44710 18590
" />
<path d="M45310 18870
L45310 18470
" />
<path d="M45310 18270
L45280 18300
L45310 18330
L45340 18300
L45310 18270
L45310 18330
" />
<path d="M45600 18470
L45600 18870
" />
<path d="M45600 18530
L45630 18500
L45690 18470
L45770 18470
L45830 18500
L45860 18560
L45860 18870
" />
</g>
<g style="fill:#008400; fill-opacity:0.0; 
stroke:#008400; stroke-width:60; stroke-opacity:1; 
stroke-linecap:round; stroke-linejoin:round;">
<path d="M26500 24000
L26500 25000
" />
<path d="M26500 25000
L26500 26000
" />
</g>
<g style="fill:#008400; fill-opacity:0.0; 
stroke:#008400; stroke-width:0; stroke-opacity:1; 
stroke-linecap:round; stroke-linejoin:round;">
</g>
<g style="fill:#008400; fill-opacity:1.0; 
stroke:#008400; stroke-width:100; stroke-opacity:1; 
stroke-linecap:round; stroke-linejoin:round;">
<circle cx="26500" cy="25000" r="200" /> 
</g>
<g style="fill:#008400; fill-opacity:1.0; 
stroke:#008400; stroke-width:60; stroke-opacity:1; 
stroke-linecap:round; stroke-linejoin:round;">
</g>
<g style="fill:#008400; fill-opacity:0.0; 
stroke:#008400; stroke-width:60; stroke-opacity:1; 
stroke-linecap:round; stroke-linejoin:round;">
<path d="M26500 29000
L26500 30000
" />
<path d="M23000 30000
L26500 30000
" />
<path d="M26500 30000
L33000 30000
" />
<path d="M33000 30000
L39500 30000
" />
<path d="M39500 30000
L46000 30000
" />
<path d="M39500 30000
L39500 29000
" />
</g>
<g style="fill:#008400; fill-opacity:0.0; 
stroke:#008400; stroke-width:0; stroke-opacity:1; 
stroke-linecap:round; stroke-linejoin:round;">
</g>
<g style="fill:#840000; fill-opacity:0.0; 
stroke:#840000; stroke-width:0; stroke-opacity:1; 
stroke-linecap:round; stroke-linejoin:round;">
</g>
<g style="fill:#840000; fill-opacity:0.0; 
stroke:#840000; stroke-width:60; stroke-opacity:1; 
stroke-linecap:round; stroke-linejoin:round;">
<polyline fill="none;"
points="33000,30500
33000,31000
33500,31000
33000,31500
32500,31000
33000,31000
" /> 
</g>
<g style="fill:#008484; fill-opacity:0.0; 
stroke:#008484; stroke-width:60; stroke-opacity:1; 
stroke-linecap:round; stroke-linejoin:round;">
<path d="M32620 31780
L32570 31760
L32500 31760
L32430 31780
L32380 31830
L32360 31880
L32340 31970
L32340 32040
L32360 32140
L32380 32180
L32430 32230
L32500 32260
L32550 32260
L32620 32230
L32640 32210
L32640 32040
L32550 32040
" />
<path d="M32860 32260
L32860 31760
L33140 32260
L33140 31760
" />
<path d="M33380 32260
L33380 31760
L33500 31760
L33570 31780
L33620 31830
L33640 31880
L33660 31970
L33660 32040
L33640 32140
L33620 32180
L33570 32230
L33500 32260
L33380 32260
" />
</g>
<g style="fill:#008400; fill-opacity:0.0; 
stroke:#008400; stroke-width:60; stroke-opacity:1; 
stroke-linecap:round; stroke-linejoin:round;">
<path d="M33000 30000
L33000 30500
" />
</g>
<g style="fill:#008400; fill-opacity:0.0; 
stroke:#008400; stroke-width:0; stroke-opacity:1; 
stroke-linecap:round; stroke-linejoin:round;">
</g>
<g style="fill:#008400; fill-opacity:1.0; 
stroke:#008400; stroke-width:100; stroke-opacity:1; 
stroke-linecap:round; stroke-linejoin:round;">
<circle cx="33000" cy="30000" r="200" /> 
</g>
<g style="fill:#008400; fill-opacity:1.0; 
stroke:#008400; stroke-width:60; stroke-opacity:1; 
stroke-linecap:round; stroke-linejoin:round;">
</g>
<g style="fill:#000000; fill-opacity:0.0; 
stroke:#000000; stroke-width:60; stroke-opacity:1; 
stroke-linecap:round; stroke-linejoin:round;">
<path d="M23140 24870
L23140 24270
L23290 24270
L23370 24300
L23430 24360
L23460 24410
L23490 24530
L23490 24610
L23460 24730
L23430 24790
L23370 24840
L23290 24870
L23140 24870
" />
<path d="M24000 24870
L24000 24560
L23970 24500
L23910 24470
L23800 24470
L23740 24500
" />
<path d="M24000 24840
L23940 24870
L23800 24870
L23740 24840
L23710 24790
L23710 24730
L23740 24670
L23800 24640
L23940 24640
L24000 24610
" />
<path d="M24200 24470
L24430 24470
" />
<path d="M24280 24270
L24280 24790
L24310 24840
L24370 24870
L24430 24870
" />
<path d="M24880 24870
L24880 24560
L24850 24500
L24790 24470
L24680 24470
L24620 24500
" />
<path d="M24880 24840
L24820 24870
L24680 24870
L24620 24840
L24590 24790
L24590 24730
L24620 24670
L24680 24640
L24820 24640
L24880 24610
" />
<path d="M25160 24640
L25620 24640
" />
<path d="M25390 24870
L25390 24410
" />
</g>
<g style="fill:#008400; fill-opacity:0.0; 
stroke:#008400; stroke-width:60; stroke-opacity:1; 
stroke-linecap:round; stroke-linejoin:round;">
<path d="M39500 24000
L39500 25000
" />
<path d="M39500 25000
L39500 26000
" />
</g>
<g style="fill:#000000; fill-opacity:0.0; 
stroke:#000000; stroke-width:60; stroke-opacity:1; 
stroke-linecap:round; stroke-linejoin:round;">
<path d="M36140 24870
L36140 24270
L36290 24270
L36370 24300
L36430 24360
L36460 24410
L36490 24530
L36490 24610
L36460 24730
L36430 24790
L36370 24840
L36290 24870
L36140 24870
" />
<path d="M37000 24870
L37000 24560
L36970 24500
L36910 24470
L36800 24470
L36740 24500
" />
<path d="M37000 24840
L36940 24870
L36800 24870
L36740 24840
L36710 24790
L36710 24730
L36740 24670
L36800 24640
L36940 24640
L37000 24610
" />
<path d="M37200 24470
L37430 24470
" />
<path d="M37280 24270
L37280 24790
L37310 24840
L37370 24870
L37430 24870
" />
<path d="M37880 24870
L37880 24560
L37850 24500
L37790 24470
L37680 24470
L37620 24500
" />
<path d="M37880 24840
L37820 24870
L37680 24870
L37620 24840
L37590 24790
L37590 24730
L37620 24670
L37680 24640
L37820 24640
L37880 24610
" />
<path d="M38160 24640
L38620 24640
" />
</g>
<g style="fill:#008400; fill-opacity:0.0; 
stroke:#008400; stroke-width:60; stroke-opacity:1; 
stroke-linecap:round; stroke-linejoin:round;">
<path d="M36000 25000
L39500 25000
" />
</g>
<g style="fill:#008400; fill-opacity:0.0; 
stroke:#008400; stroke-width:0; stroke-opacity:1; 
stroke-linecap:round; stroke-linejoin:round;">
</g>
<g style="fill:#008400; fill-opacity:1.0; 
stroke:#008400; stroke-width:100; stroke-opacity:1; 
stroke-linecap:round; stroke-linejoin:round;">
<circle cx="39500" cy="25000" r="200" /> 
</g>
<g style="fill:#008400; fill-opacity:1.0; 
stroke:#008400; stroke-width:60; stroke-opacity:1; 
stroke-linecap:round; stroke-linejoin:round;">
</g>
<g style="fill:#000000; fill-opacity:0.0; 
stroke:#000000; stroke-width:60; stroke-opacity:1; 
stroke-linecap:round; stroke-linejoin:round;">
<path d="M23460 29300
L23400 29270
L23310 29270
L23230 29300
L23170 29360
L23140 29410
L23110 29530
L23110 29610
L23140 29730
L23170 29790
L23230 29840
L23310 29870
L23370 29870
L23460 29840
L23490 29810
L23490 29610
L23370 29610
" />
<path d="M23740 29870
L23740 29270
L24090 29870
L24090 29270
" />
<path d="M24370 29870
L24370 29270
L24520 29270
L24600 29300
L24660 29360
L24690 29410
L24720 29530
L24720 29610
L24690 29730
L24660 29790
L24600 29840
L24520 29870
L24370 29870
" />
<path d="M40490 29700
L40780 29700
" />
<path d="M40440 29870
L40640 29270
L40840 29870
" />
<path d="M41030 29870
L41030 29470
" />
<path d="M41030 29590
L41060 29530
L41090 29500
L41150 29470
L41200 29470
" />
<path d="M41660 29870
L41660 29270
" />
<path d="M41660 29840
L41600 29870
L41490 29870
L41430 29840
L41400 29810
L41370 29760
L41370 29590
L41400 29530
L41430 29500
L41490 29470
L41600 29470
L41660 29500
" />
<path d="M42200 29470
L42200 29870
" />
<path d="M41940 29470
L41940 29790
L41970 29840
L42030 29870
L42110 29870
L42170 29840
L42200 29810
" />
<path d="M42480 29870
L42480 29470
" />
<path d="M42480 29270
L42450 29300
L42480 29330
L42510 29300
L42480 29270
L42480 29330
" />
<path d="M42770 29470
L42770 29870
" />
<path d="M42770 29530
L42800 29500
L42860 29470
L42940 29470
L43000 29500
L43030 29560
L43030 29870
" />
<path d="M43400 29870
L43340 29840
L43310 29810
L43280 29760
L43280 29590
L43310 29530
L43340 29500
L43400 29470
L43480 29470
L43540 29500
L43570 29530
L43600 29590
L43600 29760
L43570 29810
L43540 29840
L43480 29870
L43400 29870
" />
<path d="M43710 29930
L44170 29930
" />
<path d="M44630 29300
L44570 29270
L44480 29270
L44400 29300
L44340 29360
L44310 29410
L44280 29530
L44280 29610
L44310 29730
L44340 29790
L44400 29840
L44480 29870
L44540 29870
L44630 29840
L44660 29810
L44660 29610
L44540 29610
" />
<path d="M44910 29870
L44910 29270
L45260 29870
L45260 29270
" />
<path d="M45540 29870
L45540 29270
L45690 29270
L45770 29300
L45830 29360
L45860 29410
L45890 29530
L45890 29610
L45860 29730
L45830 29790
L45770 29840
L45690 29870
L45540 29870
" />
<path d="M23060 14270
L23260 14870
L23460 14270
" />
<path d="M23650 14870
L23650 14270
" />
<path d="M23650 14500
L23710 14470
L23820 14470
L23880 14500
L23910 14530
L23940 14590
L23940 14760
L23910 14810
L23880 14840
L23820 14870
L23710 14870
L23650 14840
" />
<path d="M24450 14470
L24450 14870
" />
<path d="M24190 14470
L24190 14790
L24220 14840
L24280 14870
L24360 14870
L24420 14840
L24450 14810
" />
<path d="M24700 14840
L24760 14870
L24880 14870
L24930 14840
L24960 14790
L24960 14760
L24930 14700
L24880 14670
L24790 14670
L24730 14640
L24700 14590
L24700 14560
L24730 14500
L24790 14470
L24880 14470
L24930 14500
" />
</g>
<g style="fill:#008400; fill-opacity:0.0; 
stroke:#008400; stroke-width:60; stroke-opacity:1; 
stroke-linecap:round; stroke-linejoin:round;">
<path d="M23000 15000
L30500 15000
" />
<path d="M33500 15000
L34500 15000
" />
<path d="M37500 15000
L46000 15000
" />
</g>
<g style="fill:#000000; fill-opacity:0.0; 
stroke:#000000; stroke-width:60; stroke-opacity:1; 
stroke-linecap:round; stroke-linejoin:round;">
<path d="M38550 14700
L38840 14700
" />
<path d="M38500 14870
L38700 14270
L38900 14870
" />
<path d="M39090 14870
L39090 14470
" />
<path d="M39090 14590
L39120 14530
L39150 14500
L39210 14470
L39260 14470
" />
<path d="M39720 14870
L39720 14270
" />
<path d="M39720 14840
L39660 14870
L39550 14870
L39490 14840
L39460 14810
L39430 14760
L39430 14590
L39460 14530
L39490 14500
L39550 14470
L39660 14470
L39720 14500
" />
<path d="M40260 14470
L40260 14870
" />
<path d="M40000 14470
L40000 14790
L40030 14840
L40090 14870
L40170 14870
L40230 14840
L40260 14810
" />
<path d="M40540 14870
L40540 14470
" />
<path d="M40540 14270
L40510 14300
L40540 14330
L40570 14300
L40540 14270
L40540 14330
" />
<path d="M40830 14470
L40830 14870
" />
<path d="M40830 14530
L40860 14500
L40920 14470
L41000 14470
L41060 14500
L41090 14560
L41090 14870
" />
<path d="M41460 14870
L41400 14840
L41370 14810
L41340 14760
L41340 14590
L41370 14530
L41400 14500
L41460 14470
L41540 14470
L41600 14500
L41630 14530
L41660 14590
L41660 14760
L41630 14810
L41600 14840
L41540 14870
L41460 14870
" />
<path d="M41770 14930
L42230 14930
" />
<path d="M42720 14870
L42520 14590
" />
<path d="M42370 14870
L42370 14270
L42600 14270
L42660 14300
L42690 14330
L42720 14390
L42720 14470
L42690 14530
L42660 14560
L42600 14590
L42370 14590
" />
<path d="M42940 14700
L43230 14700
" />
<path d="M42890 14870
L43090 14270
L43290 14870
" />
<path d="M43430 14270
L43570 14870
L43680 14440
L43800 14870
L43940 14270
" />
<path d="M44600 14240
L44090 15010
" />
<path d="M44720 14270
L44920 14870
L45120 14270
" />
<path d="M45310 14870
L45310 14470
" />
<path d="M45310 14270
L45280 14300
L45310 14330
L45340 14300
L45310 14270
L45310 14330
" />
<path d="M45600 14470
L45600 14870
" />
<path d="M45600 14530
L45630 14500
L45690 14470
L45770 14470
L45830 14500
L45860 14560
L45860 14870
" />
</g>
<g style="fill:#000000; fill-opacity:0.0; 
stroke:#000000; stroke-width:0; stroke-opacity:1; 
stroke-linecap:round; stroke-linejoin:round;">
</g>
<g style="fill:#840000; fill-opacity:0.0; 
stroke:#840000; stroke-width:0; stroke-opacity:1; 
stroke-linecap:round; stroke-linejoin:round;">
</g>
<g style="fill:#840000; fill-opacity:0.0; 
stroke:#840000; stroke-width:80; stroke-opacity:1; 
stroke-linecap:round; stroke-linejoin:round;">
<polyline fill="none;"
points="32500,15500
32500,14500
" /> 
</g>
<g style="fill:#840000; fill-opacity:0.0; 
stroke:#840000; stroke-width:60; stroke-opacity:1; 
stroke-linecap:round; stroke-linejoin:round;">
<polyline fill="none;"
points="31500,15000
32500,15000
" /> 
</g>
<g style="fill:#840000; fill-opacity:0.0; 
stroke:#840000; stroke-width:80; stroke-opacity:1; 
stroke-linecap:round; stroke-linejoin:round;">
<polyline fill="none;"
points="31500,15500
31500,14500
32500,15000
31500,15500
" /> 
</g>
<g style="fill:#840000; fill-opacity:0.0; 
stroke:#840000; stroke-width:60; stroke-opacity:1; 
stroke-linecap:round; stroke-linejoin:round;">
<path d="M32500 15000
L33500 15000
" />
<path d="M31500 15000
L30500 15000
" />
</g>
<g style="fill:#008484; fill-opacity:0.0; 
stroke:#008484; stroke-width:60; stroke-opacity:1; 
stroke-linecap:round; stroke-linejoin:round;">
<path d="M31630 16190
L31630 15690
L31750 15690
L31820 15710
L31870 15760
L31890 15810
L31910 15900
L31910 15970
L31890 16070
L31870 16110
L31820 16160
L31750 16190
L31630 16190
" />
<path d="M32390 16190
L32110 16190
" />
<path d="M32250 16190
L32250 15690
L32200 15760
L32150 15810
L32110 15830
" />
<path d="M30920 14190
L30640 14190
" />
<path d="M30780 14190
L30780 13690
L30730 13760
L30680 13810
L30640 13830
" />
<path d="M31140 14190
L31140 13690
L31420 14190
L31420 13690
" />
<path d="M31870 13850
L31870 14190
" />
<path d="M31750 13660
L31640 14020
L31940 14020
" />
<path d="M32400 14190
L32120 14190
" />
<path d="M32260 14190
L32260 13690
L32210 13760
L32160 13810
L32120 13830
" />
<path d="M32830 13850
L32830 14190
" />
<path d="M32710 13660
L32600 14020
L32900 14020
" />
<path d="M33170 13900
L33120 13880
L33100 13850
L33080 13810
L33080 13780
L33100 13730
L33120 13710
L33170 13690
L33270 13690
L33310 13710
L33340 13730
L33360 13780
L33360 13810
L33340 13850
L33310 13880
L33270 13900
L33170 13900
L33120 13920
L33100 13950
L33080 14000
L33080 14090
L33100 14140
L33120 14160
L33170 14190
L33270 14190
L33310 14160
L33340 14140
L33360 14090
L33360 14000
L33340 13950
L33310 13920
L33270 13900
" />
</g>
<g style="fill:#008484; fill-opacity:0.0; 
stroke:#008484; stroke-width:0; stroke-opacity:1; 
stroke-linecap:round; stroke-linejoin:round;">
</g>
<g style="fill:#840000; fill-opacity:0.0; 
stroke:#840000; stroke-width:0; stroke-opacity:1; 
stroke-linecap:round; stroke-linejoin:round;">
</g>
<g style="fill:#840000; fill-opacity:0.0; 
stroke:#840000; stroke-width:80; stroke-opacity:1; 
stroke-linecap:round; stroke-linejoin:round;">
<polyline fill="none;"
points="36500,15500
36500,14500
" /> 
</g>
<g style="fill:#840000; fill-opacity:0.0; 
stroke:#840000; stroke-width:60; stroke-opacity:1; 
stroke-linecap:round; stroke-linejoin:round;">
<polyline fill="none;"
points="35500,15000
36500,15000
" /> 
</g>
<g style="fill:#840000; fill-opacity:0.0; 
stroke:#840000; stroke-width:80; stroke-opacity:1; 
stroke-linecap:round; stroke-linejoin:round;">
<polyline fill="none;"
points="35500,15500
35500,14500
36500,15000
35500,15500
" /> 
</g>
<g style="fill:#840000; fill-opacity:0.0; 
stroke:#840000; stroke-width:60; stroke-opacity:1; 
stroke-linecap:round; stroke-linejoin:round;">
<path d="M36500 15000
L37500 15000
" />
<path d="M35500 15000
L34500 15000
" />
</g>
<g style="fill:#008484; fill-opacity:0.0; 
stroke:#008484; stroke-width:60; stroke-opacity:1; 
stroke-linecap:round; stroke-linejoin:round;">
<path d="M35630 16190
L35630 15690
L35750 15690
L35820 15710
L35870 15760
L35890 15810
L35910 15900
L35910 15970
L35890 16070
L35870 16110
L35820 16160
L35750 16190
L35630 16190
" />
<path d="M36110 15730
L36130 15710
L36180 15690
L36300 15690
L36340 15710
L36370 15730
L36390 15780
L36390 15830
L36370 15900
L36080 16190
L36390 16190
" />
<path d="M34920 14190
L34640 14190
" />
<path d="M34780 14190
L34780 13690
L34730 13760
L34680 13810
L34640 13830
" />
<path d="M35140 14190
L35140 13690
L35420 14190
L35420 13690
" />
<path d="M35870 13850
L35870 14190
" />
<path d="M35750 13660
L35640 14020
L35940 14020
" />
<path d="M36400 14190
L36120 14190
" />
<path d="M36260 14190
L36260 13690
L36210 13760
L36160 13810
L36120 13830
" />
<path d="M36830 13850
L36830 14190
" />
<path d="M36710 13660
L36600 14020
L36900 14020
" />
<path d="M37170 13900
L37120 13880
L37100 13850
L37080 13810
L37080 13780
L37100 13730
L37120 13710
L37170 13690
L37270 13690
L37310 13710
L37340 13730
L37360 13780
L37360 13810
L37340 13850
L37310 13880
L37270 13900
L37170 13900
L37120 13920
L37100 13950
L37080 14000
L37080 14090
L37100 14140
L37120 14160
L37170 14190
L37270 14190
L37310 14160
L37340 14140
L37360 14090
L37360 14000
L37340 13950
L37310 13920
L37270 13900
" />
</g>
<g style="fill:#0000C2; fill-opacity:0.0; 
stroke:#0000C2; stroke-width:60; stroke-opacity:1; 
stroke-linecap:round; stroke-linejoin:round;">
</g>
<g style="fill:#0000C2; fill-opacity:0.0; 
stroke:#0000C2; stroke-width:60; stroke-opacity:1; 
stroke-linecap:round; stroke-linejoin:round;stroke-dasharray:136.85,158.425;">
<path d="M30000 16500
L38000 16500
" />
</g>
<g style="fill:#0000C2; fill-opacity:0.0; 
stroke:#0000C2; stroke-width:60; stroke-opacity:1; 
stroke-linecap:round; stroke-linejoin:round;">
</g>
<g style="fill:#0000C2; fill-opacity:0.0; 
stroke:#0000C2; stroke-width:60; stroke-opacity:1; 
stroke-linecap:round; stroke-linejoin:round;stroke-dasharray:136.85,158.425;">
<path d="M38000 16500
L38000 13000
" />
</g>
<g style="fill:#0000C2; fill-opacity:0.0; 
stroke:#0000C2; stroke-width:60; stroke-opacity:1; 
stroke-linecap:round; stroke-linejoin:round;">
</g>
<g style="fill:#0000C2; fill-opacity:0.0; 
stroke:#0000C2; stroke-width:60; stroke-opacity:1; 
stroke-linecap:round; stroke-linejoin:round;stroke-dasharray:136.85,158.425;">
<path d="M38000 13000
L30000 13000
" />
</g>
<g style="fill:#0000C2; fill-opacity:0.0; 
stroke:#0000C2; stroke-width:60; stroke-opacity:1; 
stroke-linecap:round; stroke-linejoin:round;">
</g>
<g style="fill:#0000C2; fill-opacity:0.0; 
stroke:#0000C2; stroke-width:60; stroke-opacity:1; 
stroke-linecap:round; stroke-linejoin:round;stroke-dasharray:136.85,158.425;">
<path d="M30000 13000
L30000 16500
" />
</g>
<g style="fill:#0000C2; fill-opacity:0.0; 
stroke:#0000C2; stroke-width:60; stroke-opacity:1; 
stroke-linecap:round; stroke-linejoin:round;">
<path d="M30120 12710
L30290 12710
" />
<path d="M30360 12980
L30120 12980
L30120 12480
L30360 12480
" />
<path d="M30520 12980
L30780 12640
" />
<path d="M30520 12640
L30780 12980
" />
<path d="M30900 12640
L31090 12640
" />
<path d="M30970 12480
L30970 12900
L30990 12950
L31040 12980
L31090 12980
" />
<path d="M31260 12980
L31260 12640
" />
<path d="M31260 12740
L31280 12690
L31310 12670
L31350 12640
L31400 12640
" />
<path d="M31780 12980
L31780 12710
L31760 12670
L31710 12640
L31620 12640
L31570 12670
" />
<path d="M31780 12950
L31740 12980
L31620 12980
L31570 12950
L31550 12900
L31550 12860
L31570 12810
L31620 12790
L31740 12790
L31780 12760
" />
<path d="M32400 12640
L32400 13140
" />
<path d="M32400 12670
L32450 12640
L32540 12640
L32590 12670
L32610 12690
L32640 12740
L32640 12880
L32610 12930
L32590 12950
L32540 12980
L32450 12980
L32400 12950
" />
<path d="M32850 12980
L32850 12640
" />
<path d="M32850 12740
L32870 12690
L32900 12670
L32940 12640
L32990 12640
" />
<path d="M33230 12980
L33180 12950
L33160 12930
L33140 12880
L33140 12740
L33160 12690
L33180 12670
L33230 12640
L33300 12640
L33350 12670
L33370 12690
L33400 12740
L33400 12880
L33370 12930
L33350 12950
L33300 12980
L33230 12980
" />
<path d="M33540 12640
L33730 12640
" />
<path d="M33610 12480
L33610 12900
L33630 12950
L33680 12980
L33730 12980
" />
<path d="M34090 12950
L34040 12980
L33950 12980
L33900 12950
L33880 12900
L33880 12710
L33900 12670
L33950 12640
L34040 12640
L34090 12670
L34110 12710
L34110 12760
L33880 12810
" />
<path d="M34540 12950
L34500 12980
L34400 12980
L34350 12950
L34330 12930
L34310 12880
L34310 12740
L34330 12690
L34350 12670
L34400 12640
L34500 12640
L34540 12670
" />
<path d="M34690 12640
L34880 12640
" />
<path d="M34760 12480
L34760 12900
L34780 12950
L34830 12980
L34880 12980
" />
<path d="M35050 12980
L35050 12640
" />
<path d="M35050 12480
L35030 12500
L35050 12520
L35070 12500
L35050 12480
L35050 12520
" />
<path d="M35360 12980
L35310 12950
L35290 12930
L35270 12880
L35270 12740
L35290 12690
L35310 12670
L35360 12640
L35430 12640
L35480 12670
L35500 12690
L35530 12740
L35530 12880
L35500 12930
L35480 12950
L35430 12980
L35360 12980
" />
<path d="M35740 12640
L35740 12980
" />
<path d="M35740 12690
L35760 12670
L35810 12640
L35880 12640
L35930 12670
L35950 12710
L35950 12980
" />
</g>
<g style="fill:#0000C2; fill-opacity:0.0; 
stroke:#0000C2; stroke-width:0; stroke-opacity:1; 
stroke-linecap:round; stroke-linejoin:round;">
</g>
<g style="fill:#840000; fill-opacity:0.0; 
stroke:#840000; stroke-width:0; stroke-opacity:1; 
stroke-linecap:round; stroke-linejoin:round;">
</g>
<g style="fill:#840000; fill-opacity:0.0; 
stroke:#840000; stroke-width:100; stroke-opacity:1; 
stroke-linecap:round; stroke-linejoin:round;">
<rect x="28000" y="24600" width="2000" height="800" rx="0" />
</g>
<g style="fill:#840000; fill-opacity:0.0; 
stroke:#840000; stroke-width:60; stroke-opacity:1; 
stroke-linecap:round; stroke-linejoin:round;">
<path d="M30000 25000
L30500 25000
" />
<path d="M28000 25000
L27500 25000
" />
</g>
<g style="fill:#008484; fill-opacity:0.0; 
stroke:#008484; stroke-width:60; stroke-opacity:1; 
stroke-linecap:round; stroke-linejoin:round;">
<path d="M28910 26060
L28750 25820
" />
<path d="M28630 26060
L28630 25560
L28820 25560
L28870 25580
L28890 25600
L28910 25650
L28910 25720
L28890 25770
L28870 25790
L28820 25820
L28630 25820
" />
<path d="M29370 25560
L29130 25560
L29110 25790
L29130 25770
L29180 25750
L29300 25750
L29340 25770
L29370 25790
L29390 25840
L29390 25960
L29370 26010
L29340 26030
L29300 26060
L29180 26060
L29130 26030
L29110 26010
" />
<path d="M28360 24760
L28270 24760
L28220 24780
L28200 24800
L28150 24880
L28130 24970
L28130 25160
L28150 25210
L28170 25230
L28220 25260
L28320 25260
L28360 25230
L28390 25210
L28410 25160
L28410 25040
L28390 24990
L28360 24970
L28320 24950
L28220 24950
L28170 24970
L28150 24990
L28130 25040
" />
<path d="M28700 24970
L28650 24950
L28630 24920
L28610 24880
L28610 24850
L28630 24800
L28650 24780
L28700 24760
L28800 24760
L28840 24780
L28870 24800
L28890 24850
L28890 24880
L28870 24920
L28840 24950
L28800 24970
L28700 24970
L28650 24990
L28630 25020
L28610 25070
L28610 25160
L28630 25210
L28650 25230
L28700 25260
L28800 25260
L28840 25230
L28870 25210
L28890 25160
L28890 25070
L28870 25020
L28840 24990
L28800 24970
" />
<path d="M29200 24760
L29250 24760
L29300 24780
L29320 24800
L29350 24850
L29370 24950
L29370 25070
L29350 25160
L29320 25210
L29300 25230
L29250 25260
L29200 25260
L29160 25230
L29130 25210
L29110 25160
L29090 25070
L29090 24950
L29110 24850
L29130 24800
L29160 24780
L29200 24760
" />
<path d="M29870 25260
L29710 25020
" />
<path d="M29590 25260
L29590 24760
L29780 24760
L29830 24780
L29850 24800
L29870 24850
L29870 24920
L29850 24970
L29830 24990
L29780 25020
L29590 25020
" />
</g>
<g style="fill:#008400; fill-opacity:0.0; 
stroke:#008400; stroke-width:60; stroke-opacity:1; 
stroke-linecap:round; stroke-linejoin:round;">
<path d="M23000 25000
L26500 25000
" />
<path d="M26500 25000
L27500 25000
" />
<path d="M30500 25000
L33500 25000
" />
<path d="M33500 25000
L33500 19000
" />
<path d="M33500 19000
L46000 19000
" />
</g>
<g style="fill:#008400; fill-opacity:0.0; 
stroke:#008400; stroke-width:0; stroke-opacity:1; 
stroke-linecap:round; stroke-linejoin:round;">
</g>
<g style="fill:#008400; fill-opacity:1.0; 
stroke:#008400; stroke-width:100; stroke-opacity:1; 
stroke-linecap:round; stroke-linejoin:round;">
<circle cx="39500" cy="30000" r="200" /> 
</g>
<g style="fill:#008400; fill-opacity:1.0; 
stroke:#008400; stroke-width:0; stroke-opacity:1; 
stroke-linecap:round; stroke-linejoin:round;">
</g>
<g style="fill:#008400; fill-opacity:1.0; 
stroke:#008400; stroke-width:100; stroke-opacity:1; 
stroke-linecap:round; stroke-linejoin:round;">
<circle cx="26500" cy="30000" r="200" /> 
</g> 
</svg>
